<svg viewBox="0 0 426 129" fill="none" xmlns="http://www.w3.org/2000/svg">
<path fill-rule="evenodd" clip-rule="evenodd" d="M264.4 100.6C239.7 118.8 203.8 128.6 172.9 128.6C129.6 128.6 90.6 112.6 61.1 86C58.8 83.9 60.9 81.1 63.6 82.7C95.4 101.2 134.8 112.4 175.4 112.4C202.8 112.4 233 106.7 260.7 95C265 93 268.5 97.5 264.4 100.6Z" fill="#475569"/>
<path fill-rule="evenodd" clip-rule="evenodd" d="M274.7 88.8C271.5 84.8 253.8 86.9 245.8 87.8C243.4 88.1 243 86 245.2 84.5C259.3 74.5 282.5 77.4 285.3 80.8C288 84.2 284.6 107.4 271.3 118.5C269.3 120.2 267.3 119.3 268.2 117C271.1 109.5 277.8 92.8 274.7 88.8Z" fill="#475569"/>
<path fill-rule="evenodd" clip-rule="evenodd" d="M246.3 14.2V4.49997C246.3 3.19997 247.3 2.09998 248.6 2.09998H248.7H292C293.4 2.09998 294.5 3.09997 294.5 4.49997V12.8C294.5 14.2 293.3 16 291.2 18.9L268.8 50.9C277.1 50.7 285.9 51.9 293.5 56.2C295.2 57.2 295.7 58.6 295.8 60V70.3C295.8 71.7 294.2 73.4 292.6 72.5C279.3 65.5 261.6 64.8 246.8 72.6C245.3 73.4 243.7 71.8 243.7 70.4V60.6C243.7 59 243.7 56.3 245.3 53.9L271.3 16.6H248.7C247.5 16.7 246.3 15.7 246.3 14.2ZM88.3 74.6H75.1001C73.9001 74.5 72.9 73.6 72.7 72.4V4.79997C72.7 3.39997 73.8 2.39996 75.2 2.39996H87.5C88.8 2.49996 89.8 3.39997 89.9 4.69997V13.5H90.1001C93.3001 4.99997 99.3 0.999969 107.4 0.999969C115.6 0.999969 120.8 4.99997 124.5 13.5C127.7 4.99997 134.9 0.999969 142.7 0.999969C148.2 0.999969 154.3 3.29996 158 8.39996C162.2 14.1 161.3 22.4 161.3 29.6V72.3C161.3 73.7 160.1 74.8 158.8 74.7H145.6C144.3 74.6 143.3 73.6 143.2 72.3V36.5C143.2 33.6 143.5 26.5 142.8 23.8C141.8 19.3 138.9 18 135.1 18C131.9 18 128.6 20.1 127.2 23.5C125.9 26.9 126 32.6 126 36.5V72.3C126 73.7 124.8 74.8 123.5 74.7H110.3C109 74.6 107.9 73.6 107.9 72.3V36.5C107.9 29 109.1 17.9 99.8 17.9C90.3 17.9 90.7 28.7 90.7 36.5V72.3C90.9 73.5 89.7 74.6 88.3 74.6ZM331.9 0.899963C351.5 0.899963 362 17.7 362 39C362 59.6 350.3 76 331.9 76C312.7 76 302.2 59.2 302.2 38.3C302.2 17.2 312.8 0.899963 331.9 0.899963ZM332 14.7C322.3 14.7 321.7 27.9 321.7 36.2C321.7 44.5 321.6 62.1 331.9 62.1C342.1 62.1 342.6 47.9 342.6 39.2C342.6 33.5 342.4 26.7 340.6 21.3C339.1 16.5 336.2 14.7 332 14.7ZM387.4 74.6H374.3C373 74.5 372 73.5 371.9 72.2V4.59998C372 3.29998 373.1 2.39996 374.4 2.39996H386.6C387.7 2.39996 388.7 3.19997 389 4.29997V14.6H389.2C392.9 5.39998 398.1 0.899963 407.2 0.899963C413.1 0.899963 418.9 2.99996 422.6 8.89996C426 14.3 426 23.4 426 30V72.6C425.8 73.8 424.7 74.7 423.5 74.7H410.3C409.1 74.6 408.1 73.7 408 72.6V35.9C408 28.5 408.9 17.7 399.7 17.7C396.5 17.7 393.5 19.9 392.1 23.1C390.2 27.2 390 31.3 390 35.9V72.3C389.9 73.5 388.8 74.6 387.4 74.6ZM211.8 42.3C211.8 47.4 211.9 51.7 209.3 56.3C207.2 60 203.9 62.3 200.2 62.3C195.1 62.3 192.2 58.4 192.2 52.8C192.2 41.6 202.3 39.5 211.8 39.5V42.3ZM225.1 74.4C224.2 75.1 223 75.3 222 74.7C217.6 71.1 216.8 69.4 214.4 65.9C207.2 73.3 202 75.5 192.7 75.5C181.6 75.5 173 68.7 173 55C173 44.3 178.8 37 187.1 33.5C194.3 30.3 204.2 29.8 211.9 28.9V27.2C211.9 24.1 212.1 20.4 210.3 17.6C208.7 15.2 205.6 14.2 202.9 14.2C197.9 14.2 193.4 16.8 192.3 22.1C192.1 23.3 191.2 24.5 190 24.5L177.2 23.1C176.1 22.9 174.9 22 175.2 20.3C178.1 4.79997 192.1 0.0999756 204.7 0.0999756C211.1 0.0999756 219.5 1.79997 224.6 6.69997C231 12.7 230.4 20.7 230.4 29.4V50C230.4 56.2 233 58.9 235.4 62.2C236.2 63.4 236.4 64.8 235.3 65.7C231.8 68.6 228.5 71.5 225.1 74.4ZM39.1 42.3C39.1 47.4 39.2 51.7 36.6 56.3C34.5 60 31.2 62.3 27.5 62.3C22.4 62.3 19.5 58.4 19.5 52.8C19.5 41.6 29.6 39.5 39.1 39.5V42.3ZM52.4 74.4C51.5 75.1 50.3 75.3 49.3 74.7C44.9 71.1 44.1 69.4 41.7 65.9C34.5 73.3 29.4 75.5 20 75.5C8.90005 75.5 0.300049 68.7 0.300049 55C0.300049 44.3 6.10005 37 14.4 33.5C21.6 30.3 31.5 29.8 39.2 28.9V27.2C39.2 24.1 39.4 20.4 37.6 17.6C36 15.2 32.9 14.2 30.2 14.2C25.2 14.2 20.7 16.8 19.6 22.1C19.4 23.3 18.5 24.5 17.3 24.5L4.50005 23.1C3.40005 22.9 2.20005 22 2.50005 20.3C5.40005 4.79997 19.4 0.0999756 32 0.0999756C38.4 0.0999756 46.8 1.79997 51.8 6.69997C58.2 12.7 57.6001 20.7 57.6001 29.4V50C57.6001 56.2 60.2001 58.9 62.6001 62.2C63.5001 63.4 63.6001 64.8 62.6001 65.7C59.1001 68.6 55.7 71.5 52.4 74.4Z" fill="#475569"/>
</svg>
