<svg width="346" height="64" viewBox="0 0 346 64" fill="none" xmlns="http://www.w3.org/2000/svg">
<rect width="64" height="64" rx="10" fill="#2563EB"/>
<path d="M47.9426 10.1363C47.8202 9.53338 47.4932 8.99135 47.017 8.60201C46.5408 8.21268 45.9447 8 45.3296 8C44.7146 8 44.1185 8.21268 43.6423 8.60201C43.1661 8.99135 42.8391 9.53338 42.7167 10.1363L42.0768 13.3153C41.9739 13.8317 41.7205 14.3061 41.3485 14.6787C40.9765 15.0513 40.5026 15.3054 39.9864 15.4089L36.8082 16.0437C36.2026 16.1635 35.6573 16.4898 35.2654 16.967C34.8735 17.4441 34.6593 18.0425 34.6593 18.66C34.6593 19.2776 34.8735 19.8759 35.2654 20.3531C35.6573 20.8302 36.2026 21.1565 36.8082 21.2764L39.9864 21.9111C40.5031 22.0142 40.9776 22.2681 41.3501 22.6407C41.7226 23.0133 41.9764 23.4879 42.0795 24.0047L42.714 27.1838C42.8338 27.7896 43.16 28.335 43.637 28.727C44.114 29.1191 44.7123 29.3333 45.3296 29.3333C45.947 29.3333 46.5452 29.1191 47.0222 28.727C47.4992 28.335 47.8255 27.7896 47.9452 27.1838L48.5798 24.0047C48.6829 23.4879 48.9367 23.0133 49.3092 22.6407C49.6817 22.2681 50.1562 22.0142 50.6728 21.9111L53.851 21.2764C54.4566 21.1565 55.0019 20.8302 55.3938 20.3531C55.7858 19.8759 56 19.2776 56 18.66C56 18.0425 55.7858 17.4441 55.3938 16.967C55.0019 16.4898 54.4566 16.1635 53.851 16.0437L50.6728 15.4089C50.1562 15.3058 49.6817 15.052 49.3092 14.6793C48.9367 14.3067 48.6829 13.8321 48.5798 13.3153L47.9452 10.1363H47.9426ZM23.8635 20.4843C23.687 19.9526 23.3475 19.4901 22.8933 19.1623C22.4391 18.8345 21.8933 18.6581 21.3333 18.6581C20.7732 18.6581 20.2274 18.8345 19.7732 19.1623C19.319 19.4901 18.9795 19.9526 18.803 20.4843L16.9819 25.9543C16.8511 26.3475 16.6304 26.7048 16.3374 26.9978C16.0445 27.2909 15.6873 27.5116 15.2942 27.6425L9.82565 29.4641C9.29416 29.6407 8.83176 29.9802 8.50406 30.4345C8.17636 30.8888 8 31.4348 8 31.995C8 32.5553 8.17636 33.1012 8.50406 33.5555C8.83176 34.0099 9.29416 34.3494 9.82565 34.526L15.2942 36.3503C15.687 36.4809 16.044 36.7012 16.3369 36.9937C16.6299 37.2863 16.8507 37.6431 16.9819 38.0358L18.803 43.5058C18.9795 44.0375 19.319 44.5 19.7732 44.8278C20.2274 45.1556 20.7732 45.332 21.3333 45.332C21.8933 45.332 22.4391 45.1556 22.8933 44.8278C23.3475 44.5 23.687 44.0375 23.8635 43.5058L25.6846 38.0358C25.8154 37.6426 26.0361 37.2853 26.3291 36.9922C26.622 36.6992 26.9792 36.4785 27.3723 36.3476L32.8408 34.526C33.3723 34.3494 33.8347 34.0099 34.1624 33.5555C34.4901 33.1012 34.6665 32.5553 34.6665 31.995C34.6665 31.4348 34.4901 30.8888 34.1624 30.4345C33.8347 29.9802 33.3723 29.6407 32.8408 29.4641L27.3723 27.6425C26.9792 27.5116 26.622 27.2909 26.3291 26.9978C26.0361 26.7048 25.8154 26.3475 25.6846 25.9543L23.8635 20.4843ZM42.5274 41.8203C42.3508 41.2886 42.0114 40.8261 41.5572 40.4983C41.103 40.1705 40.5572 39.9941 39.9971 39.9941C39.437 39.9941 38.8912 40.1705 38.437 40.4983C37.9828 40.8261 37.6434 41.2886 37.4668 41.8203L36.9762 43.2898C36.8456 43.6827 36.6254 44.0398 36.3329 44.3329C36.0404 44.6259 35.6838 44.8468 35.2911 44.978L33.822 45.4661C33.2905 45.6427 32.8281 45.9822 32.5004 46.4366C32.1727 46.8909 31.9964 47.4368 31.9964 47.9971C31.9964 48.5573 32.1727 49.1033 32.5004 49.5576C32.8281 50.0119 33.2905 50.3514 33.822 50.528L35.2911 51.0161C35.6842 51.147 36.0415 51.3677 36.3344 51.6608C36.6274 51.9538 36.848 52.3111 36.9789 52.7043L37.4668 54.1738C37.6434 54.7055 37.9828 55.168 38.437 55.4958C38.8912 55.8236 39.437 56 39.9971 56C40.5572 56 41.103 55.8236 41.5572 55.4958C42.0114 55.168 42.3508 54.7055 42.5274 54.1738L43.018 52.7043C43.1486 52.3114 43.3688 51.9543 43.6613 51.6612C43.9538 51.3682 44.3104 51.1473 44.7031 51.0161L46.1722 50.528C46.7037 50.3514 47.1661 50.0119 47.4938 49.5576C47.8215 49.1033 47.9978 48.5573 47.9978 47.9971C47.9978 47.4368 47.8215 46.8909 47.4938 46.4366C47.1661 45.9822 46.7037 45.6427 46.1722 45.4661L44.7031 44.9753C44.3102 44.8447 43.9532 44.6244 43.6603 44.3319C43.3673 44.0393 43.1465 43.6825 43.0153 43.2898L42.5274 41.8203Z" fill="white"/>
<path d="M95.7372 30.7656H91.3821C91.3026 30.2022 91.1402 29.7017 90.8949 29.2642C90.6496 28.8201 90.3348 28.4422 89.9503 28.1307C89.5658 27.8191 89.1217 27.5805 88.6179 27.4148C88.1207 27.2491 87.5805 27.1662 86.9972 27.1662C85.9432 27.1662 85.0251 27.428 84.2429 27.9517C83.4607 28.4687 82.8542 29.2244 82.4233 30.2188C81.9924 31.2064 81.777 32.4062 81.777 33.8182C81.777 35.2699 81.9924 36.4896 82.4233 37.4773C82.8608 38.465 83.4706 39.2107 84.2528 39.7145C85.035 40.2183 85.9399 40.4702 86.9673 40.4702C87.544 40.4702 88.0777 40.3939 88.5682 40.2415C89.0653 40.089 89.5062 39.867 89.8906 39.5753C90.2751 39.277 90.5933 38.9157 90.8452 38.4915C91.1037 38.0672 91.2827 37.5833 91.3821 37.0398L95.7372 37.0597C95.6245 37.9943 95.3428 38.8958 94.892 39.7642C94.4479 40.6259 93.848 41.3982 93.0923 42.081C92.3433 42.7571 91.4484 43.294 90.4077 43.6918C89.3736 44.0829 88.2036 44.2784 86.8977 44.2784C85.0814 44.2784 83.4574 43.8674 82.0256 43.0455C80.6004 42.2235 79.4735 41.0336 78.6449 39.4759C77.8229 37.9181 77.4119 36.0322 77.4119 33.8182C77.4119 31.5975 77.8295 29.7083 78.6648 28.1506C79.5 26.5928 80.6335 25.4062 82.0653 24.5909C83.4972 23.7689 85.108 23.358 86.8977 23.358C88.0777 23.358 89.1714 23.5237 90.179 23.8551C91.1932 24.1866 92.0914 24.6705 92.8736 25.3068C93.6558 25.9366 94.2921 26.7088 94.7827 27.6236C95.2798 28.5384 95.598 29.5857 95.7372 30.7656ZM109.871 29.4929C109.792 28.6908 109.451 28.0677 108.847 27.6236C108.244 27.1794 107.425 26.9574 106.391 26.9574C105.689 26.9574 105.095 27.0568 104.612 27.2557C104.128 27.4479 103.756 27.7164 103.498 28.0611C103.246 28.4058 103.12 28.7969 103.12 29.2344C103.107 29.599 103.183 29.9171 103.349 30.1889C103.521 30.4607 103.756 30.696 104.055 30.8949C104.353 31.0871 104.698 31.2562 105.089 31.402C105.48 31.5412 105.897 31.6605 106.342 31.7599L108.171 32.1974C109.059 32.3963 109.875 32.6615 110.617 32.9929C111.36 33.3243 112.003 33.732 112.546 34.2159C113.09 34.6998 113.511 35.2699 113.809 35.9261C114.114 36.5824 114.27 37.3348 114.276 38.1832C114.27 39.4295 113.951 40.5099 113.322 41.4247C112.699 42.3329 111.797 43.0388 110.617 43.5426C109.444 44.0398 108.029 44.2884 106.371 44.2884C104.728 44.2884 103.296 44.0365 102.076 43.5327C100.863 43.0289 99.915 42.2831 99.2322 41.2955C98.5561 40.3011 98.2015 39.0715 98.1683 37.6065H102.335C102.381 38.2893 102.576 38.8594 102.921 39.3168C103.272 39.7675 103.74 40.1089 104.323 40.3409C104.913 40.5663 105.579 40.679 106.322 40.679C107.051 40.679 107.684 40.5729 108.221 40.3608C108.764 40.1487 109.185 39.8537 109.484 39.4759C109.782 39.098 109.931 38.6638 109.931 38.1733C109.931 37.7159 109.795 37.3314 109.523 37.0199C109.258 36.7083 108.867 36.4432 108.35 36.2244C107.84 36.0057 107.213 35.8068 106.471 35.6278L104.254 35.071C102.537 34.6534 101.181 34.0005 100.187 33.1122C99.1925 32.224 98.6986 31.0275 98.7053 29.5227C98.6986 28.2898 99.0268 27.2126 99.6896 26.2912C100.359 25.3698 101.277 24.6506 102.444 24.1335C103.611 23.6165 104.936 23.358 106.421 23.358C107.933 23.358 109.252 23.6165 110.379 24.1335C111.512 24.6506 112.394 25.3698 113.023 26.2912C113.653 27.2126 113.978 28.2798 113.998 29.4929H109.871ZM123.653 44V23.6364H131.687C133.225 23.6364 134.537 23.9115 135.624 24.4616C136.718 25.0052 137.55 25.7775 138.12 26.7784C138.697 27.7727 138.985 28.9427 138.985 30.2884C138.985 31.6406 138.693 32.804 138.11 33.7784C137.527 34.7462 136.682 35.4886 135.575 36.0057C134.474 36.5227 133.142 36.7812 131.577 36.7812H126.198V33.321H130.881C131.703 33.321 132.386 33.2083 132.93 32.983C133.473 32.7576 133.878 32.4195 134.143 31.9688C134.415 31.518 134.55 30.9579 134.55 30.2884C134.55 29.6122 134.415 29.0421 134.143 28.5781C133.878 28.1141 133.47 27.7628 132.92 27.5241C132.376 27.2789 131.69 27.1562 130.862 27.1562H127.958V44H123.653ZM134.65 34.733L139.711 44H134.958L130.006 34.733H134.65ZM148.662 44.2983C147.091 44.2983 145.739 43.9801 144.605 43.3438C143.479 42.7008 142.61 41.7926 142 40.6193C141.391 39.4394 141.086 38.044 141.086 36.4332C141.086 34.8622 141.391 33.4834 142 32.2969C142.61 31.1103 143.469 30.1856 144.576 29.5227C145.689 28.8598 146.995 28.5284 148.493 28.5284C149.501 28.5284 150.439 28.6908 151.307 29.0156C152.182 29.3338 152.944 29.8144 153.594 30.4574C154.25 31.1004 154.761 31.9091 155.125 32.8835C155.49 33.8513 155.672 34.9848 155.672 36.2841V37.4474H142.776V34.8224H151.685C151.685 34.2126 151.552 33.6723 151.287 33.2017C151.022 32.7311 150.654 32.3632 150.184 32.098C149.72 31.8262 149.179 31.6903 148.563 31.6903C147.92 31.6903 147.35 31.8395 146.853 32.1378C146.362 32.4295 145.978 32.8239 145.699 33.321C145.421 33.8116 145.278 34.3584 145.272 34.9616V37.4574C145.272 38.2131 145.411 38.866 145.689 39.4162C145.974 39.9664 146.375 40.3906 146.892 40.6889C147.409 40.9872 148.023 41.1364 148.732 41.1364C149.203 41.1364 149.633 41.0701 150.025 40.9375C150.416 40.8049 150.75 40.6061 151.029 40.3409C151.307 40.0758 151.519 39.7509 151.665 39.3665L155.583 39.625C155.384 40.5663 154.976 41.3883 154.36 42.0909C153.75 42.7869 152.961 43.3305 151.993 43.7216C151.032 44.1061 149.922 44.2983 148.662 44.2983ZM171.144 33.0824L167.266 33.321C167.2 32.9896 167.057 32.6913 166.838 32.4261C166.62 32.1544 166.331 31.9389 165.973 31.7798C165.622 31.6141 165.201 31.5312 164.711 31.5312C164.054 31.5312 163.501 31.6705 163.05 31.9489C162.599 32.2206 162.374 32.5852 162.374 33.0426C162.374 33.4072 162.52 33.7154 162.811 33.9673C163.103 34.2192 163.604 34.4214 164.313 34.5739L167.077 35.1307C168.562 35.4356 169.669 35.9261 170.398 36.6023C171.127 37.2784 171.492 38.1667 171.492 39.267C171.492 40.268 171.197 41.1463 170.607 41.902C170.024 42.6577 169.221 43.2476 168.201 43.6719C167.186 44.0895 166.016 44.2983 164.691 44.2983C162.669 44.2983 161.058 43.8774 159.858 43.0355C158.665 42.187 157.966 41.0336 157.76 39.5753L161.926 39.3565C162.052 39.973 162.357 40.4437 162.841 40.7685C163.325 41.0866 163.945 41.2457 164.701 41.2457C165.443 41.2457 166.04 41.1032 166.49 40.8182C166.948 40.5265 167.18 40.152 167.186 39.6946C167.18 39.3101 167.017 38.9953 166.699 38.75C166.381 38.4981 165.891 38.3059 165.228 38.1733L162.583 37.6463C161.091 37.348 159.981 36.831 159.252 36.0952C158.529 35.3594 158.168 34.4214 158.168 33.2812C158.168 32.3002 158.433 31.455 158.963 30.7457C159.5 30.0365 160.253 29.4896 161.221 29.1051C162.195 28.7206 163.335 28.5284 164.641 28.5284C166.57 28.5284 168.088 28.9361 169.195 29.7514C170.309 30.5668 170.958 31.6771 171.144 33.0824ZM183.953 37.4972V28.7273H188.189V44H184.122V41.2259H183.963C183.618 42.1207 183.045 42.84 182.243 43.3835C181.447 43.9271 180.476 44.1989 179.33 44.1989C178.309 44.1989 177.411 43.9669 176.635 43.5028C175.859 43.0388 175.253 42.3793 174.815 41.5241C174.384 40.669 174.166 39.6449 174.159 38.4517V28.7273H178.395V37.696C178.402 38.5975 178.643 39.3101 179.121 39.8338C179.598 40.3575 180.238 40.6193 181.04 40.6193C181.55 40.6193 182.027 40.5033 182.472 40.2713C182.916 40.0327 183.274 39.6813 183.545 39.2173C183.824 38.7533 183.96 38.1799 183.953 37.4972ZM191.577 44V28.7273H195.614V31.4219H195.793C196.111 30.527 196.641 29.821 197.384 29.304C198.126 28.7869 199.015 28.5284 200.049 28.5284C201.096 28.5284 201.988 28.7902 202.723 29.3139C203.459 29.831 203.95 30.5336 204.195 31.4219H204.354C204.666 30.5469 205.229 29.8475 206.044 29.3239C206.866 28.7936 207.837 28.5284 208.958 28.5284C210.383 28.5284 211.54 28.9825 212.428 29.8906C213.323 30.7921 213.77 32.0715 213.77 33.7287V44H209.544V34.5639C209.544 33.7154 209.319 33.0791 208.868 32.6548C208.417 32.2306 207.854 32.0185 207.178 32.0185C206.409 32.0185 205.809 32.2637 205.378 32.7543C204.947 33.2382 204.732 33.8778 204.732 34.6733V44H200.625V34.4744C200.625 33.7254 200.41 33.1288 199.979 32.6847C199.555 32.2405 198.995 32.0185 198.299 32.0185C197.828 32.0185 197.404 32.1378 197.026 32.3764C196.655 32.6084 196.36 32.9366 196.141 33.3608C195.922 33.7784 195.813 34.2689 195.813 34.8324V44H191.577ZM224.076 44.2983C222.505 44.2983 221.153 43.9801 220.02 43.3438C218.893 42.7008 218.024 41.7926 217.414 40.6193C216.805 39.4394 216.5 38.044 216.5 36.4332C216.5 34.8622 216.805 33.4834 217.414 32.2969C218.024 31.1103 218.883 30.1856 219.99 29.5227C221.103 28.8598 222.409 28.5284 223.907 28.5284C224.915 28.5284 225.853 28.6908 226.721 29.0156C227.596 29.3338 228.359 29.8144 229.008 30.4574C229.664 31.1004 230.175 31.9091 230.539 32.8835C230.904 33.8513 231.086 34.9848 231.086 36.2841V37.4474H218.19V34.8224H227.099C227.099 34.2126 226.967 33.6723 226.701 33.2017C226.436 32.7311 226.068 32.3632 225.598 32.098C225.134 31.8262 224.593 31.6903 223.977 31.6903C223.334 31.6903 222.764 31.8395 222.267 32.1378C221.776 32.4295 221.392 32.8239 221.113 33.321C220.835 33.8116 220.692 34.3584 220.686 34.9616V37.4574C220.686 38.2131 220.825 38.866 221.103 39.4162C221.388 39.9664 221.789 40.3906 222.306 40.6889C222.824 40.9872 223.437 41.1364 224.146 41.1364C224.617 41.1364 225.047 41.0701 225.439 40.9375C225.83 40.8049 226.164 40.6061 226.443 40.3409C226.721 40.0758 226.933 39.7509 227.079 39.3665L230.997 39.625C230.798 40.5663 230.39 41.3883 229.774 42.0909C229.164 42.7869 228.375 43.3305 227.407 43.7216C226.446 44.1061 225.336 44.2983 224.076 44.2983ZM240.411 44V23.6364H248.564C250.062 23.6364 251.312 23.8584 252.312 24.3026C253.313 24.7467 254.066 25.3632 254.57 26.152C255.073 26.9342 255.325 27.8357 255.325 28.8565C255.325 29.652 255.166 30.3513 254.848 30.9545C254.53 31.5511 254.092 32.0417 253.536 32.4261C252.985 32.804 252.356 33.0724 251.646 33.2315V33.4304C252.422 33.4635 253.148 33.6823 253.824 34.0866C254.507 34.491 255.06 35.0578 255.484 35.7869C255.909 36.5095 256.121 37.3712 256.121 38.3722C256.121 39.4527 255.852 40.4171 255.315 41.2656C254.785 42.1075 254 42.7737 252.959 43.2642C251.918 43.7547 250.635 44 249.111 44H240.411ZM244.716 40.4801H248.226C249.426 40.4801 250.301 40.2514 250.851 39.794C251.401 39.33 251.676 38.7135 251.676 37.9446C251.676 37.3812 251.54 36.884 251.268 36.4531C250.997 36.0223 250.609 35.6842 250.105 35.4389C249.608 35.1937 249.015 35.071 248.325 35.071H244.716V40.4801ZM244.716 32.1577H247.908C248.498 32.1577 249.021 32.0549 249.479 31.8494C249.943 31.6373 250.307 31.339 250.572 30.9545C250.844 30.5701 250.98 30.1094 250.98 29.5724C250.98 28.8366 250.718 28.2434 250.195 27.7926C249.678 27.3419 248.942 27.1165 247.987 27.1165H244.716V32.1577ZM268.637 37.4972V28.7273H272.873V44H268.806V41.2259H268.647C268.302 42.1207 267.729 42.84 266.926 43.3835C266.131 43.9271 265.16 44.1989 264.013 44.1989C262.992 44.1989 262.094 43.9669 261.319 43.5028C260.543 43.0388 259.936 42.3793 259.499 41.5241C259.068 40.669 258.849 39.6449 258.843 38.4517V28.7273H263.078V37.696C263.085 38.5975 263.327 39.3101 263.804 39.8338C264.282 40.3575 264.921 40.6193 265.723 40.6193C266.234 40.6193 266.711 40.5033 267.155 40.2713C267.599 40.0327 267.957 39.6813 268.229 39.2173C268.507 38.7533 268.643 38.1799 268.637 37.4972ZM276.261 44V28.7273H280.496V44H276.261ZM278.388 26.7585C277.759 26.7585 277.219 26.5497 276.768 26.1321C276.324 25.7079 276.102 25.2008 276.102 24.6108C276.102 24.0275 276.324 23.527 276.768 23.1094C277.219 22.6851 277.759 22.473 278.388 22.473C279.018 22.473 279.555 22.6851 279.999 23.1094C280.45 23.527 280.675 24.0275 280.675 24.6108C280.675 25.2008 280.45 25.7079 279.999 26.1321C279.555 26.5497 279.018 26.7585 278.388 26.7585ZM288.125 23.6364V44H283.89V23.6364H288.125ZM297.146 44.2486C295.986 44.2486 294.936 43.9503 293.994 43.3537C293.06 42.7505 292.317 41.8655 291.767 40.6989C291.223 39.5256 290.952 38.0871 290.952 36.3835C290.952 34.6335 291.233 33.1785 291.797 32.0185C292.36 30.8518 293.109 29.9801 294.044 29.4034C294.985 28.8201 296.016 28.5284 297.136 28.5284C297.991 28.5284 298.704 28.6742 299.274 28.9659C299.851 29.2509 300.315 29.6089 300.666 30.0398C301.024 30.464 301.296 30.8816 301.482 31.2926H301.611V23.6364H305.837V44H301.661V41.554H301.482C301.283 41.9782 301.001 42.3991 300.636 42.8168C300.278 43.2277 299.811 43.5691 299.234 43.8409C298.664 44.1127 297.968 44.2486 297.146 44.2486ZM298.489 40.8778C299.171 40.8778 299.748 40.6922 300.219 40.321C300.696 39.9432 301.061 39.4162 301.312 38.7401C301.571 38.0639 301.7 37.2718 301.7 36.3636C301.7 35.4555 301.574 34.6667 301.322 33.9972C301.071 33.3277 300.706 32.8106 300.229 32.446C299.751 32.0814 299.171 31.8991 298.489 31.8991C297.793 31.8991 297.206 32.0881 296.729 32.4659C296.251 32.8437 295.89 33.3674 295.645 34.0369C295.4 34.7064 295.277 35.482 295.277 36.3636C295.277 37.2519 295.4 38.0374 295.645 38.7202C295.897 39.3963 296.258 39.9266 296.729 40.3111C297.206 40.6889 297.793 40.8778 298.489 40.8778ZM316.279 44.2983C314.708 44.2983 313.356 43.9801 312.223 43.3438C311.096 42.7008 310.227 41.7926 309.618 40.6193C309.008 39.4394 308.703 38.044 308.703 36.4332C308.703 34.8622 309.008 33.4834 309.618 32.2969C310.227 31.1103 311.086 30.1856 312.193 29.5227C313.306 28.8598 314.612 28.5284 316.11 28.5284C317.118 28.5284 318.056 28.6908 318.924 29.0156C319.799 29.3338 320.562 29.8144 321.211 30.4574C321.868 31.1004 322.378 31.9091 322.743 32.8835C323.107 33.8513 323.289 34.9848 323.289 36.2841V37.4474H310.393V34.8224H319.302C319.302 34.2126 319.17 33.6723 318.904 33.2017C318.639 32.7311 318.271 32.3632 317.801 32.098C317.337 31.8262 316.797 31.6903 316.18 31.6903C315.537 31.6903 314.967 31.8395 314.47 32.1378C313.979 32.4295 313.595 32.8239 313.316 33.321C313.038 33.8116 312.895 34.3584 312.889 34.9616V37.4574C312.889 38.2131 313.028 38.866 313.306 39.4162C313.592 39.9664 313.993 40.3906 314.51 40.6889C315.027 40.9872 315.64 41.1364 316.349 41.1364C316.82 41.1364 317.251 41.0701 317.642 40.9375C318.033 40.8049 318.368 40.6061 318.646 40.3409C318.924 40.0758 319.136 39.7509 319.282 39.3665L323.2 39.625C323.001 40.5663 322.593 41.3883 321.977 42.0909C321.367 42.7869 320.578 43.3305 319.61 43.7216C318.649 44.1061 317.539 44.2983 316.279 44.2983ZM326.054 44V28.7273H330.16V31.392H330.319C330.598 30.4441 331.065 29.7282 331.721 29.2443C332.377 28.7538 333.133 28.5085 333.988 28.5085C334.2 28.5085 334.429 28.5218 334.674 28.5483C334.92 28.5748 335.135 28.6113 335.321 28.6577V32.4162C335.122 32.3565 334.847 32.3035 334.495 32.2571C334.144 32.2107 333.823 32.1875 333.531 32.1875C332.908 32.1875 332.351 32.3234 331.86 32.5952C331.377 32.8603 330.992 33.2315 330.707 33.7088C330.429 34.1861 330.289 34.7363 330.289 35.3594V44H326.054Z" fill="#2563EB"/>
</svg>
