<svg width="48" height="48" viewBox="0 0 48 48" fill="none" xmlns="http://www.w3.org/2000/svg">
<path d="M39.9426 2.13628C39.8202 1.53338 39.4932 0.991345 39.017 0.602015C38.5408 0.212684 37.9447 0 37.3296 0C36.7146 0 36.1185 0.212684 35.6423 0.602015C35.1661 0.991345 34.8391 1.53338 34.7167 2.13628L34.0768 5.31534C33.9739 5.83175 33.7205 6.30613 33.3485 6.6787C32.9765 7.05127 32.5026 7.30536 31.9864 7.40894L28.8082 8.04369C28.2026 8.1635 27.6573 8.48981 27.2654 8.96695C26.8735 9.44409 26.6593 10.0425 26.6593 10.66C26.6593 11.2776 26.8735 11.8759 27.2654 12.3531C27.6573 12.8302 28.2026 13.1565 28.8082 13.2764L31.9864 13.9111C32.5031 14.0142 32.9776 14.2681 33.3501 14.6407C33.7226 15.0133 33.9764 15.4879 34.0795 16.0047L34.714 19.1838C34.8338 19.7896 35.16 20.335 35.637 20.727C36.114 21.1191 36.7123 21.3333 37.3296 21.3333C37.947 21.3333 38.5452 21.1191 39.0222 20.727C39.4992 20.335 39.8255 19.7896 39.9452 19.1838L40.5798 16.0047C40.6829 15.4879 40.9367 15.0133 41.3092 14.6407C41.6817 14.2681 42.1562 14.0142 42.6728 13.9111L45.851 13.2764C46.4566 13.1565 47.0019 12.8302 47.3938 12.3531C47.7858 11.8759 48 11.2776 48 10.66C48 10.0425 47.7858 9.44409 47.3938 8.96695C47.0019 8.48981 46.4566 8.1635 45.851 8.04369L42.6728 7.40894C42.1562 7.30583 41.6817 7.05196 41.3092 6.67935C40.9367 6.30674 40.6829 5.83211 40.5798 5.31534L39.9452 2.13628H39.9426ZM15.8635 12.4843C15.687 11.9526 15.3475 11.4901 14.8933 11.1623C14.4391 10.8345 13.8933 10.6581 13.3333 10.6581C12.7732 10.6581 12.2274 10.8345 11.7732 11.1623C11.319 11.4901 10.9795 11.9526 10.803 12.4843L8.98191 17.9543C8.85106 18.3475 8.6304 18.7048 8.33744 18.9978C8.04447 19.2909 7.68727 19.5116 7.29416 19.6425L1.82565 21.4641C1.29416 21.6407 0.83176 21.9802 0.50406 22.4345C0.17636 22.8888 0 23.4348 0 23.995C0 24.5553 0.17636 25.1012 0.50406 25.5555C0.83176 26.0099 1.29416 26.3494 1.82565 26.526L7.29416 28.3503C7.68698 28.4809 8.044 28.7012 8.33695 28.9937C8.62989 29.2863 8.85071 29.6431 8.98191 30.0358L10.803 35.5058C10.9795 36.0375 11.319 36.5 11.7732 36.8278C12.2274 37.1556 12.7732 37.332 13.3333 37.332C13.8933 37.332 14.4391 37.1556 14.8933 36.8278C15.3475 36.5 15.687 36.0375 15.8635 35.5058L17.6846 30.0358C17.8154 29.6426 18.0361 29.2853 18.3291 28.9922C18.622 28.6992 18.9792 28.4785 19.3723 28.3476L24.8408 26.526C25.3723 26.3494 25.8347 26.0099 26.1624 25.5555C26.4901 25.1012 26.6665 24.5553 26.6665 23.995C26.6665 23.4348 26.4901 22.8888 26.1624 22.4345C25.8347 21.9802 25.3723 21.6407 24.8408 21.4641L19.3723 19.6425C18.9792 19.5116 18.622 19.2909 18.3291 18.9978C18.0361 18.7048 17.8154 18.3475 17.6846 17.9543L15.8635 12.4843ZM34.5274 33.8203C34.3508 33.2886 34.0114 32.8261 33.5572 32.4983C33.103 32.1705 32.5572 31.9941 31.9971 31.9941C31.437 31.9941 30.8912 32.1705 30.437 32.4983C29.9828 32.8261 29.6434 33.2886 29.4668 33.8203L28.9762 35.2898C28.8456 35.6827 28.6254 36.0398 28.3329 36.3329C28.0404 36.6259 27.6838 36.8468 27.2911 36.978L25.822 37.4661C25.2905 37.6427 24.8281 37.9822 24.5004 38.4366C24.1727 38.8909 23.9964 39.4368 23.9964 39.9971C23.9964 40.5573 24.1727 41.1033 24.5004 41.5576C24.8281 42.0119 25.2905 42.3514 25.822 42.528L27.2911 43.0161C27.6842 43.147 28.0415 43.3677 28.3344 43.6608C28.6274 43.9538 28.848 44.3111 28.9789 44.7043L29.4668 46.1738C29.6434 46.7055 29.9828 47.168 30.437 47.4958C30.8912 47.8236 31.437 48 31.9971 48C32.5572 48 33.103 47.8236 33.5572 47.4958C34.0114 47.168 34.3508 46.7055 34.5274 46.1738L35.018 44.7043C35.1486 44.3114 35.3688 43.9543 35.6613 43.6612C35.9538 43.3682 36.3104 43.1473 36.7031 43.0161L38.1722 42.528C38.7037 42.3514 39.1661 42.0119 39.4938 41.5576C39.8215 41.1033 39.9978 40.5573 39.9978 39.9971C39.9978 39.4368 39.8215 38.8909 39.4938 38.4366C39.1661 37.9822 38.7037 37.6427 38.1722 37.4661L36.7031 36.9753C36.3102 36.8447 35.9532 36.6244 35.6603 36.3319C35.3673 36.0393 35.1465 35.6825 35.0153 35.2898L34.5274 33.8203Z" fill="#2563EB"/>
</svg>
